<svg xmlns="http://www.w3.org/2000/svg" width="160" height="158" fill="none">

 <g>
  <title>Layer 1</title>
  <path id="svg_1" fill="#F5EFE5" d="m26.5566,79.1061c0,29.4939 24.1164,53.4089 53.8732,53.4089c29.7572,0 53.8732,-23.915 53.8732,-53.4088c0,-29.4935 -24.116,-53.4091 -53.8731,-53.4091c-29.7569,0 -53.8733,23.9155 -53.8733,53.409zm-0.5693,0c0,29.8109 24.3747,53.9769 54.4425,53.9769c30.0682,0 54.4422,-24.166 54.4422,-53.9768c0,-29.8108 -24.374,-53.9773 -54.4421,-53.9773c-30.0678,0 -54.4426,24.1664 -54.4426,53.9772z" clip-rule="evenodd" fill-rule="evenodd"/>
  <path id="svg_2" fill="#E9DFCE" d="m4.26279,49.2198l3.67738,-2.2692l-4.28855,0.1498l-3.65162,10.1161l16.2371,5.8274l3.2806,-9.0881l-4.7481,-5.0291c2.2738,3.7453 3.737,7.4635 1.9453,11.9137l-7.73192,-2.775l2.56372,-7.1023l-0.2577,-0.0925l-2.56375,7.1023l-7.66166,-2.7498c1.15723,-3.2792 1.72882,-4.7893 3.1992,-6.0033z"/>
  <path id="svg_3" fill="#E9DFCE" d="m28.4543,38.4745l-9.4796,1.9112l-1.7063,-7.4818l-0.2099,0.3377l1.6419,7.2083l-7.0082,1.4232l-1.6269,2.6169l9.1499,-1.8522l1.7867,7.8237l0.1968,-0.3166l-1.7223,-7.5501l7.351,-1.5034l1.6269,-2.6169z"/>
  <path id="svg_4" fill="#E9DFCE" d="m23.1194,26.7145c1.5693,-11.6059 15.8551,-0.631 10.3747,5.0684c-1.1547,1.2008 -2.9176,1.9578 -4.0859,0.8408l-6.2888,-5.9092zm11.7426,13.9785l0.1549,-2.6726l-4.9789,-4.7601c1.6194,0.7914 3.6358,-1.3055 3.6358,-1.3055c2.6541,-2.7601 0.8006,-7.9721 0.8006,-7.9721c-2.377,-5.8157 -10.843,-4.725 -11.5527,2.5427l-1.402,-1.3404l0.0625,4.6349l0.2124,-1.6201l13.0674,12.4932z"/>
  <path id="svg_5" fill="#E9DFCE" d="m43.7024,22.3293c-1.6848,-2.2507 -3.9517,-5.4879 -5.6883,-8.1238l-0.392,-0.575c-1.4698,-2.1562 -3.3564,-4.57042 -3.2718,-7.44989c-1.0181,4.29279 0.7341,7.12819 1.994,8.97639l0.084,0.1232l5.438,7.9332c1.2318,1.8072 2.432,1.6242 4.4914,0.2284c-0.8946,0.3661 -1.8302,0.0095 -2.6553,-1.1125z"/>
  <path id="svg_6" fill="#E9DFCE" d="m53.5568,6.25033c-3.4926,-0.18761 -6.8892,2.75033 -7.0124,6.26007c-0.1274,3.5652 3.1032,6.595 6.6419,6.7638c3.4832,0.1646 6.8953,-2.5383 6.9997,-6.094c0.1463,-3.51921 -3.1229,-6.77465 -6.6292,-6.92987zm-0.8772,12.64007c-2.4702,-0.121 -4.2756,-2.363 -4.0452,-6.3992c0.2978,-4.33178 3.0649,-6.04802 5.4795,-5.93124c2.4472,0.13038 4.5499,2.57326 4.0188,6.59774c-0.445,3.7748 -3.0385,5.8495 -5.4531,5.7327z"/>
  <path id="svg_7" fill="#e8dece" d="m70.9635,3.39775l0.7382,-1.79761c-0.5191,0.06794 -0.9313,0.16716 -0.9313,0.16716c-2.9655,0.53227 -4.4006,3.51461 -4.2889,4.55417l-0.6617,-3.66559l-2.0096,0.36072l0.547,3.03021l1.4137,7.97089c0.0926,0.5132 0.0142,0.7796 -0.098,1.2791l3.4065,-0.6115c-0.472,-0.0918 -1.1156,-0.1529 -1.2744,-1.0327l-1.2308,-6.81795c-0.0789,-0.71748 0.2048,-2.50922 3.8545,-3.31569c0,0 0.2451,-0.04399 0.5348,-0.12121z"/>
  <path id="svg_9" fill="#E9DFCE" d="m106.044,0.02236c0.388,0.73885 1.229,2.77097 0.86,3.53106l-6.274,12.94398l0.157,0.0756l6.407,-13.04566l3.583,12.17896l12.726,-6.91137l-7.358,15.17957l1.995,0.9616l7.51,-15.4925l-2.04,-0.98326l-10.934,6.01006l-3.729,-13.07655l-2.892,-1.39385l-0.011,0.02236z"/>
  <path id="svg_13" fill="#E9DFCE" d="m153.266,78.121l-0.659,-8.9395l-0.347,0.0255l0.659,8.9395l0.347,-0.0255z"/>
  <path id="svg_14" fill="#E9DFCE" d="m155.737,108.78l-3.677,2.269l4.288,-0.149l3.652,-10.116l-16.237,-5.8279l-3.281,9.0879l4.748,5.029c-2.273,-3.745 -3.737,-7.463 -1.945,-11.9134l7.732,2.775l-2.564,7.1024l0.258,0.092l2.564,-7.102l7.661,2.75c-1.157,3.279 -1.728,4.789 -3.199,6.003z"/>
  <path id="svg_15" fill="#E9DFCE" d="m130.843,119.671l9.48,-1.911l1.706,7.482l0.21,-0.338l-1.642,-7.208l7.008,-1.424l1.627,-2.616l-9.15,1.852l-1.787,-7.824l-0.196,0.317l1.722,7.55l-7.351,1.503l-1.627,2.617z"/>
  <path id="svg_16" fill="#E9DFCE" d="m135.732,131.471c-1.569,11.606 -15.855,0.631 -10.374,-5.068c1.154,-1.201 2.917,-1.958 4.085,-0.841l6.289,5.909zm-11.742,-13.978l-0.155,2.673l4.979,4.76c-1.62,-0.792 -3.636,1.305 -3.636,1.305c-2.654,2.76 -0.801,7.972 -0.801,7.972c2.377,5.816 10.843,4.725 11.553,-2.543l1.402,1.341l-0.063,-4.635l-0.212,1.62l-13.067,-12.493z"/>
  <path id="svg_17" fill="#E9DFCE" d="m117.247,135.96c1.685,2.251 3.952,5.488 5.689,8.124l0.392,0.575c1.47,2.156 3.356,4.57 3.272,7.45c1.018,-4.293 -0.735,-7.128 -1.994,-8.977l-0.084,-0.123l-5.438,-7.933c-1.232,-1.807 -2.432,-1.624 -4.492,-0.228c0.895,-0.367 1.83,-0.01 2.655,1.112z"/>
  <path id="svg_18" fill="#E9DFCE" d="m107.687,151.635c3.493,0.188 6.89,-2.75 7.013,-6.26c0.127,-3.565 -3.103,-6.595 -6.642,-6.764c-3.483,-0.165 -6.895,2.538 -7,6.094c-0.146,3.519 3.123,6.775 6.629,6.93zm0.878,-12.64c2.47,0.121 4.275,2.363 4.045,6.399c-0.298,4.332 -3.065,6.048 -5.48,5.931c-2.447,-0.13 -4.55,-2.573 -4.018,-6.597c0.445,-3.775 3.038,-5.85 5.453,-5.733z"/>
  <path id="svg_19" fill="#E9DFCE" d="m89.0367,154.602l-0.7381,1.798c0.519,-0.068 0.9313,-0.167 0.9313,-0.167c2.9654,-0.533 4.4005,-3.515 4.2888,-4.554l0.6617,3.665l2.0097,-0.361l-0.5471,-3.03l-1.4137,-7.971c-0.0926,-0.513 -0.0142,-0.779 0.0981,-1.279l-3.4066,0.612c0.472,0.092 1.1156,0.153 1.2744,1.032l1.2308,6.818c0.079,0.718 -0.2048,2.51 -3.8545,3.316c0,0 -0.2451,0.044 -0.5348,0.121z"/>
  <path id="svg_20" fill="#E9DFCE" d="m71.2626,147.811c1.2377,-2.123 3.6591,-3.065 5.1027,-3.02c5.1521,0.161 6.5735,4.875 5.8233,8.131l-7.2179,-0.225c-0.847,-0.002 -2.8685,0.109 -2.9185,1.697c-0.0062,0.199 0.0007,1.565 2.2243,2.156c2.0261,0.536 3.427,0.356 4.1037,0.228c4.0399,-0.917 5.5508,-4.596 5.5508,-4.596c1.4011,-3.36 -0.9139,-8.177 -5.5185,-8.321c-1.4435,-0.045 -2.9712,0.205 -4.6217,1.197c-2.1041,1.152 -2.6028,2.751 -2.6028,2.751l0.0746,0.002zm9.9178,7.067c-1.1629,1.33 -4.0984,1.984 -5.9035,0.76c-1.0733,-0.73 -1.6378,-2.586 0.0811,-2.581l6.8011,0.013c-0.172,0.715 -0.5151,1.326 -0.9787,1.808z"/>
  <path id="svg_21" fill="#E9DFCE" d="m53.9563,157.978c-0.3886,-0.739 -1.229,-2.771 -0.8606,-3.531l6.2742,-12.944l-0.157,-0.076l-6.4064,13.046l-3.5833,-12.179l-12.726,6.911l7.3578,-15.179l-1.9954,-0.962l-7.5095,15.492l2.0403,0.984l10.9339,-6.01l3.7289,13.076l2.8923,1.394l0.0108,-0.022z"/>
  <path id="svg_22" fill="#E9DFCE" d="m25.84,134.987c1.5834,3.11 5.8334,4.574 8.9433,2.926c3.1601,-1.673 4.1763,-5.978 2.5535,-9.118c-1.5986,-3.09 -5.6522,-4.685 -8.7926,-2.997c-3.1296,1.633 -4.3225,6.084 -2.7042,9.189zm11.4169,-5.562c1.13,2.193 0.0854,4.873 -3.5353,6.692c-3.9112,1.909 -6.7853,0.378 -7.8912,-1.766c-1.1103,-2.178 -0.04,-5.215 3.7209,-6.769c3.5011,-1.503 6.5997,-0.301 7.7056,1.843z"/>
  <path id="svg_23" fill="#E9DFCE" d="m16.6043,121.826l-1.9303,0.262c0.3185,0.414 0.6108,0.72 0.6108,0.72c1.945,2.295 5.2528,2.043 6.0998,1.427l-2.8528,2.404l1.3182,1.555l2.3583,-1.987l6.2161,-5.207c0.3994,-0.336 0.6699,-0.402 1.1599,-0.554l-2.2344,-2.636c0.1562,0.453 0.425,1.039 -0.2597,1.616l-5.3062,4.472c-0.5837,0.427 -2.2817,1.078 -4.807,-1.67c0,0 -0.1608,-0.19 -0.3727,-0.402z"/>
  <path id="svg_24" fill="#E9DFCE" d="m14.5201,104.243c2.4624,0.008 4.492,1.627 5.1746,2.896c2.4362,4.53 -0.948,8.115 -4.1508,9.095l-3.413,-6.346c-0.4221,-0.732 -1.529,-2.423 -2.93347,-1.672c-0.17557,0.094 -1.359,0.784 -0.76063,2.999c0.5481,2.018 1.40467,3.137 1.8541,3.658c2.8165,3.03 6.7673,2.495 6.7673,2.495c3.6185,-0.47 6.6448,-4.878 4.4676,-8.926c-0.6826,-1.269 -1.6639,-2.463 -3.3506,-3.392c-2.0521,-1.241 -3.6904,-0.872 -3.6904,-0.872l0.0353,0.065zm-1.179,12.098c-1.7366,-0.339 -3.77191,-2.547 -3.6114,-4.718c0.09662,-1.292 1.4263,-2.707 2.2823,-1.221l3.3885,5.88c-0.707,0.209 -1.4087,0.218 -2.0594,0.059z"/>
  <path id="svg_25" fill="#E9DFCE" d="m6.73338,79.879l0.65908,8.9395l0.34768,-0.0255l-0.65908,-8.9395l-0.34768,0.0255z"/>
  <text transform="rotate(-9.29845 79.8842 3.52016) matrix(1.13505 0 0 0.863067 -10.3912 6.73643)" stroke="null" xml:space="preserve" text-anchor="start" font-family="Noto Sans JP" font-size="30" stroke-width="0" id="svg_26" y="6.43038" x="72.73748" fill="#e8dece">a</text>
  <text transform="rotate(41.2974 131.209 23.8816) matrix(1.13505 0 0 0.863067 -9.66835 7.09787)" stroke="null" xml:space="preserve" text-anchor="start" font-family="Noto Sans JP" font-size="30" stroke-width="0" id="svg_28" y="29.60354" x="117.31913" fill="#e8dece">a</text>
  <text transform="rotate(37.6062 141.681 31.7126) matrix(1.1548 0 0 0.931067 -21.5969 2.71768)" stroke="null" xml:space="preserve" text-anchor="start" font-family="Noto Sans JP" font-size="30" id="svg_29" y="41.24956" x="135.5534" fill="#E9DFCE">s</text>
 </g>
</svg>